ISO-10303-21;
HEADER;
FILE_DESCRIPTION(('Open CASCADE Model'),'2;1');
FILE_NAME('Open CASCADE Shape Model','2026-09-09T15:00:11',('Author'),(
    'Open CASCADE'),'Open CASCADE STEP processor 7.9','Open CASCADE 7.9'
  ,'Unknown');
FILE_SCHEMA(('AUTOMOTIVE_DESIGN { 1 0 10303 214 1 1 1 1 }'));
ENDSEC;
DATA;
#1 = APPLICATION_PROTOCOL_DEFINITION('international standard',
  'automotive_design',2000,#2);
#2 = APPLICATION_CONTEXT(
  'core data for automotive mechanical design processes');
#3 = SHAPE_DEFINITION_REPRESENTATION(#4,#10);
#4 = PRODUCT_DEFINITION_SHAPE('','',#5);
#5 = PRODUCT_DEFINITION('design','',#6,#9);
#6 = PRODUCT_DEFINITION_FORMATION('','',#7);
#7 = PRODUCT('Open CASCADE STEP translator 7.9 3',
  'Open CASCADE STEP translator 7.9 3','',(#8));
#8 = PRODUCT_CONTEXT('',#2,'mechanical');
#9 = PRODUCT_DEFINITION_CONTEXT('part definition',#2,'design');
#10 = ADVANCED_BREP_SHAPE_REPRESENTATION('',(#11,#15),#197);
#11 = AXIS2_PLACEMENT_3D('',#12,#13,#14);
#12 = CARTESIAN_POINT('',(0.,0.,0.));
#13 = DIRECTION('',(0.,0.,1.));
#14 = DIRECTION('',(1.,0.,-0.));
#15 = MANIFOLD_SOLID_BREP('',#16);
#16 = CLOSED_SHELL('',(#17,#193));
#17 = ADVANCED_FACE('',(#18),#31,.T.);
#18 = FACE_BOUND('',#19,.T.);
#19 = EDGE_LOOP('',(#20));
#20 = ORIENTED_EDGE('',*,*,#21,.T.);
#21 = EDGE_CURVE('',#22,#22,#24,.T.);
#22 = VERTEX_POINT('',#23);
#23 = CARTESIAN_POINT('',(29.,45.,277.));
#24 = SURFACE_CURVE('',#25,(#30,#181),.PCURVE_S1.);
#25 = CIRCLE('',#26,12.);
#26 = AXIS2_PLACEMENT_3D('',#27,#28,#29);
#27 = CARTESIAN_POINT('',(29.,45.,265.));
#28 = DIRECTION('',(0.,1.,0.));
#29 = DIRECTION('',(0.,-0.,1.));
#30 = PCURVE('',#31,#36);
#31 = SPHERICAL_SURFACE('',#32,13.);
#32 = AXIS2_PLACEMENT_3D('',#33,#34,#35);
#33 = CARTESIAN_POINT('',(29.,40.,265.));
#34 = DIRECTION('',(0.,0.,1.));
#35 = DIRECTION('',(1.,0.,0.));
#36 = DEFINITIONAL_REPRESENTATION('',(#37),#180);
#37 = B_SPLINE_CURVE_WITH_KNOTS('',8,(#38,#39,#40,#41,#42,#43,#44,#45,
    #46,#47,#48,#49,#50,#51,#52,#53,#54,#55,#56,#57,#58,#59,#60,#61,#62,
    #63,#64,#65,#66,#67,#68,#69,#70,#71,#72,#73,#74,#75,#76,#77,#78,#79,
    #80,#81,#82,#83,#84,#85,#86,#87,#88,#89,#90,#91,#92,#93,#94,#95,#96,
    #97,#98,#99,#100,#101,#102,#103,#104,#105,#106,#107,#108,#109,#110,
    #111,#112,#113,#114,#115,#116,#117,#118,#119,#120,#121,#122,#123,
    #124,#125,#126,#127,#128,#129,#130,#131,#132,#133,#134,#135,#136,
    #137,#138,#139,#140,#141,#142,#143,#144,#145,#146,#147,#148,#149,
    #150,#151,#152,#153,#154,#155,#156,#157,#158,#159,#160,#161,#162,
    #163,#164,#165,#166,#167,#168,#169,#170,#171,#172,#173,#174,#175,
    #176,#177,#178,#179),.UNSPECIFIED.,.F.,.F.,(9,7,7,7,7,7,7,7,7,7,7,7,
    7,7,7,7,7,7,7,7,9),(0.,0.196349540849,0.386563158547,0.755102042837,
    1.44611245088,2.050746557917,2.315273979746,2.563268437711,
    2.795763242052,3.013727121123,3.218068257751,3.409638073341,
    3.589234775456,3.925978591921,4.515280270736,4.957256529847,
    5.28873872418,5.53735036993,5.910267838555,6.096726572867,
    6.28318530718),.UNSPECIFIED.);
#38 = CARTESIAN_POINT('',(1.570796326795,1.176005207095));
#39 = CARTESIAN_POINT('',(1.51189146454,1.176005207095));
#40 = CARTESIAN_POINT('',(1.452986618483,1.174352924398));
#41 = CARTESIAN_POINT('',(1.394758621966,1.171048406534));
#42 = CARTESIAN_POINT('',(1.337884892936,1.166130259686));
#43 = CARTESIAN_POINT('',(1.282946589734,1.159676720564));
#44 = CARTESIAN_POINT('',(1.230334286103,1.151791421623));
#45 = CARTESIAN_POINT('',(1.180281987382,1.142587693779));
#46 = CARTESIAN_POINT('',(1.086992844542,1.122098014279));
#47 = CARTESIAN_POINT('',(1.043591854755,1.110886118113));
#48 = CARTESIAN_POINT('',(1.002792307489,1.098648776841));
#49 = CARTESIAN_POINT('',(0.96458018359,1.085491330813));
#50 = CARTESIAN_POINT('',(0.928865210129,1.071512179387));
#51 = CARTESIAN_POINT('',(0.895516136169,1.056799811148));
#52 = CARTESIAN_POINT('',(0.864386964152,1.041432728958));
#53 = CARTESIAN_POINT('',(0.779019891611,0.994571825323));
#54 = CARTESIAN_POINT('',(0.730477460705,0.961465383798));
#55 = CARTESIAN_POINT('',(0.688596053261,0.926663901923));
#56 = CARTESIAN_POINT('',(0.652212925812,0.890537412494));
#57 = CARTESIAN_POINT('',(0.620440141298,0.853346507026));
#58 = CARTESIAN_POINT('',(0.592549943589,0.815290696484));
#59 = CARTESIAN_POINT('',(0.567971739276,0.776521208547));
#60 = CARTESIAN_POINT('',(0.505506934324,0.663350579728));
#61 = CARTESIAN_POINT('',(0.474793585897,0.58745462328));
#62 = CARTESIAN_POINT('',(0.451071106231,0.510255478515));
#63 = CARTESIAN_POINT('',(0.432718467409,0.432138780368));
#64 = CARTESIAN_POINT('',(0.418718013968,0.35338295962));
#65 = CARTESIAN_POINT('',(0.40841983243,0.274179692541));
#66 = CARTESIAN_POINT('',(0.401430149688,0.194687957629));
#67 = CARTESIAN_POINT('',(0.394184022031,4.536390955887E-02));
#68 = CARTESIAN_POINT('',(0.393195184976,-2.443372939547E-02));
#69 = CARTESIAN_POINT('',(0.394476399204,-9.424992143602E-02));
#70 = CARTESIAN_POINT('',(0.398029730194,-0.163999282612));
#71 = CARTESIAN_POINT('',(0.403960450381,-0.233594272991));
#72 = CARTESIAN_POINT('',(0.412494412921,-0.302934910305));
#73 = CARTESIAN_POINT('',(0.424006841311,-0.371898817116));
#74 = CARTESIAN_POINT('',(0.445770633498,-0.470235178343));
#75 = CARTESIAN_POINT('',(0.453088752955,-0.500057206659));
#76 = CARTESIAN_POINT('',(0.461155546668,-0.529757817763));
#77 = CARTESIAN_POINT('',(0.470035512269,-0.55931985373));
#78 = CARTESIAN_POINT('',(0.479805091992,-0.588723559397));
#79 = CARTESIAN_POINT('',(0.490555531051,-0.617945759615));
#80 = CARTESIAN_POINT('',(0.502396829788,-0.646958640823));
#81 = CARTESIAN_POINT('',(0.527712126895,-0.702699539573));
#82 = CARTESIAN_POINT('',(0.541037782304,-0.729457015211));
#83 = CARTESIAN_POINT('',(0.555550280094,-0.755972508046));
#84 = CARTESIAN_POINT('',(0.571378017325,-0.78221294401));
#85 = CARTESIAN_POINT('',(0.588672097492,-0.808139142663));
#86 = CARTESIAN_POINT('',(0.60761097728,-0.833703901109));
#87 = CARTESIAN_POINT('',(0.628404926428,-0.858849249946));
#88 = CARTESIAN_POINT('',(0.672764714084,-0.90661566059));
#89 = CARTESIAN_POINT('',(0.696076046741,-0.92929625084));
#90 = CARTESIAN_POINT('',(0.721436794224,-0.951485097451));
#91 = CARTESIAN_POINT('',(0.749077176821,-0.973111279941));
#92 = CARTESIAN_POINT('',(0.779254072153,-0.994090397733));
#93 = CARTESIAN_POINT('',(0.812251630983,-1.014320430062));
#94 = CARTESIAN_POINT('',(0.848365254505,-1.033678129033));
#95 = CARTESIAN_POINT('',(0.924868133393,-1.069212607353));
#96 = CARTESIAN_POINT('',(0.964849074236,-1.085512582232));
#97 = CARTESIAN_POINT('',(1.008003955481,-1.100799060557));
#98 = CARTESIAN_POINT('',(1.054512389672,-1.114935878451));
#99 = CARTESIAN_POINT('',(1.104484157157,-1.127771210186));
#100 = CARTESIAN_POINT('',(1.157901049088,-1.139139366754));
#101 = CARTESIAN_POINT('',(1.2145047942,-1.148878244864));
#102 = CARTESIAN_POINT('',(1.32940070322,-1.16432635815));
#103 = CARTESIAN_POINT('',(1.387366283516,-1.17024940466));
#104 = CARTESIAN_POINT('',(1.447298739526,-1.174508143038));
#105 = CARTESIAN_POINT('',(1.508617593719,-1.177010089796));
#106 = CARTESIAN_POINT('',(1.570560329596,-1.177696846818));
#107 = CARTESIAN_POINT('',(1.632276569653,-1.176564009612));
#108 = CARTESIAN_POINT('',(1.693009472012,-1.173655186596));
#109 = CARTESIAN_POINT('',(1.807583416123,-1.164729586268));
#110 = CARTESIAN_POINT('',(1.861618000442,-1.158918443302));
#111 = CARTESIAN_POINT('',(1.91374248446,-1.151679181198));
#112 = CARTESIAN_POINT('',(1.963562605187,-1.14310325496));
#113 = CARTESIAN_POINT('',(2.010846380936,-1.133298168315));
#114 = CARTESIAN_POINT('',(2.05550292635,-1.122375384448));
#115 = CARTESIAN_POINT('',(2.097534299565,-1.110441364685));
#116 = CARTESIAN_POINT('',(2.174009679665,-1.085552949385));
#117 = CARTESIAN_POINT('',(2.208763653722,-1.072708894418));
#118 = CARTESIAN_POINT('',(2.241320963105,-1.05914569613));
#119 = CARTESIAN_POINT('',(2.27178281588,-1.044939338767));
#120 = CARTESIAN_POINT('',(2.300274174629,-1.030158152066));
#121 = CARTESIAN_POINT('',(2.326927102633,-1.014862317014));
#122 = CARTESIAN_POINT('',(2.35187133234,-0.999104386086));
#123 = CARTESIAN_POINT('',(2.419033413195,-0.952605377738));
#124 = CARTESIAN_POINT('',(2.457267494029,-0.920818605849));
#125 = CARTESIAN_POINT('',(2.49075765374,-0.887875915917));
#126 = CARTESIAN_POINT('',(2.52025751459,-0.854002579417));
#127 = CARTESIAN_POINT('',(2.546358995207,-0.819365262985));
#128 = CARTESIAN_POINT('',(2.569546934263,-0.784093519806));
#129 = CARTESIAN_POINT('',(2.590210354622,-0.748288901652));
#130 = CARTESIAN_POINT('',(2.640967724725,-0.648585674057));
#131 = CARTESIAN_POINT('',(2.666511266845,-0.583756668489));
#132 = CARTESIAN_POINT('',(2.68700318389,-0.517984043023));
#133 = CARTESIAN_POINT('',(2.703469940094,-0.451518822524));
#134 = CARTESIAN_POINT('',(2.716593922914,-0.384542651402));
#135 = CARTESIAN_POINT('',(2.726839940377,-0.317188927913));
#136 = CARTESIAN_POINT('',(2.734517272743,-0.249566589467));
#137 = CARTESIAN_POINT('',(2.74378278006,-0.130922438462));
#138 = CARTESIAN_POINT('',(2.746413399638,-7.997692346867E-02));
#139 = CARTESIAN_POINT('',(2.747782077259,-2.897309429636E-02));
#140 = CARTESIAN_POINT('',(2.747928036091,2.205343474471E-02));
#141 = CARTESIAN_POINT('',(2.746858083828,7.306893200524E-02));
#142 = CARTESIAN_POINT('',(2.744548310312,0.124039227131));
#143 = CARTESIAN_POINT('',(2.740940751262,0.174927278886));
#144 = CARTESIAN_POINT('',(2.73218071824,0.263763147118));
#145 = CARTESIAN_POINT('',(2.727639905875,0.301765493726));
#146 = CARTESIAN_POINT('',(2.72227032812,0.339679759409));
#147 = CARTESIAN_POINT('',(2.716015819895,0.377486067114));
#148 = CARTESIAN_POINT('',(2.708804807758,0.415162053564));
#149 = CARTESIAN_POINT('',(2.700546604139,0.452681772494));
#150 = CARTESIAN_POINT('',(2.691125492008,0.490014022856));
#151 = CARTESIAN_POINT('',(2.672342930894,0.554949661394));
#152 = CARTESIAN_POINT('',(2.663555363929,0.5826519866));
#153 = CARTESIAN_POINT('',(2.653967040426,0.610210750934));
#154 = CARTESIAN_POINT('',(2.643504411478,0.637607121596));
#155 = CARTESIAN_POINT('',(2.632081191301,0.664819274219));
#156 = CARTESIAN_POINT('',(2.619595422825,0.691821490992));
#157 = CARTESIAN_POINT('',(2.605925655484,0.718582842342));
#158 = CARTESIAN_POINT('',(2.568427104737,0.784789367004));
#159 = CARTESIAN_POINT('',(2.542936335655,0.823886123496));
#160 = CARTESIAN_POINT('',(2.513961593993,0.862227570781));
#161 = CARTESIAN_POINT('',(2.480892032099,0.899651018461));
#162 = CARTESIAN_POINT('',(2.442946886758,0.935940462634));
#163 = CARTESIAN_POINT('',(2.399175086021,0.970813543837));
#164 = CARTESIAN_POINT('',(2.34833015268,1.003865554037));
#165 = CARTESIAN_POINT('',(2.259765734103,1.049891682248));
#166 = CARTESIAN_POINT('',(2.228194829894,1.064641752959));
#167 = CARTESIAN_POINT('',(2.194433599305,1.078731521804));
#168 = CARTESIAN_POINT('',(2.158350280147,1.092083900253));
#169 = CARTESIAN_POINT('',(2.119831743025,1.104612588661));
#170 = CARTESIAN_POINT('',(2.078810153704,1.116222609223));
#171 = CARTESIAN_POINT('',(2.035296587158,1.126813640508));
#172 = CARTESIAN_POINT('',(1.943526177867,1.145762298922));
#173 = CARTESIAN_POINT('',(1.895269287079,1.154119925913));
#174 = CARTESIAN_POINT('',(1.844760486786,1.161263087642));
#175 = CARTESIAN_POINT('',(1.792227835898,1.167096659714));
#176 = CARTESIAN_POINT('',(1.73802949811,1.171535203262));
#177 = CARTESIAN_POINT('',(1.682671559349,1.174515195415));
#178 = CARTESIAN_POINT('',(1.626733947089,1.176005207095));
#179 = CARTESIAN_POINT('',(1.570796326795,1.176005207095));
#180 = ( GEOMETRIC_REPRESENTATION_CONTEXT(2) 
PARAMETRIC_REPRESENTATION_CONTEXT() REPRESENTATION_CONTEXT('2D SPACE',''
  ) );
#181 = PCURVE('',#182,#187);
#182 = PLANE('',#183);
#183 = AXIS2_PLACEMENT_3D('',#184,#185,#186);
#184 = CARTESIAN_POINT('',(9.,45.,245.));
#185 = DIRECTION('',(0.,1.,0.));
#186 = DIRECTION('',(0.,0.,1.));
#187 = DEFINITIONAL_REPRESENTATION('',(#188),#192);
#188 = CIRCLE('',#189,12.);
#189 = AXIS2_PLACEMENT_2D('',#190,#191);
#190 = CARTESIAN_POINT('',(20.,20.));
#191 = DIRECTION('',(1.,0.));
#192 = ( GEOMETRIC_REPRESENTATION_CONTEXT(2) 
PARAMETRIC_REPRESENTATION_CONTEXT() REPRESENTATION_CONTEXT('2D SPACE',''
  ) );
#193 = ADVANCED_FACE('',(#194),#182,.F.);
#194 = FACE_BOUND('',#195,.F.);
#195 = EDGE_LOOP('',(#196));
#196 = ORIENTED_EDGE('',*,*,#21,.T.);
#197 = ( GEOMETRIC_REPRESENTATION_CONTEXT(3) 
GLOBAL_UNCERTAINTY_ASSIGNED_CONTEXT((#201)) GLOBAL_UNIT_ASSIGNED_CONTEXT
((#198,#199,#200)) REPRESENTATION_CONTEXT('Context #1',
  '3D Context with UNIT and UNCERTAINTY') );
#198 = ( LENGTH_UNIT() NAMED_UNIT(*) SI_UNIT(.MILLI.,.METRE.) );
#199 = ( NAMED_UNIT(*) PLANE_ANGLE_UNIT() SI_UNIT($,.RADIAN.) );
#200 = ( NAMED_UNIT(*) SI_UNIT($,.STERADIAN.) SOLID_ANGLE_UNIT() );
#201 = UNCERTAINTY_MEASURE_WITH_UNIT(LENGTH_MEASURE(1.E-07),#198,
  'distance_accuracy_value','confusion accuracy');
#202 = PRODUCT_RELATED_PRODUCT_CATEGORY('part',$,(#7));
ENDSEC;
END-ISO-10303-21;
