ISO-10303-21;
HEADER;
FILE_DESCRIPTION(('Open CASCADE Model'),'2;1');
FILE_NAME('Open CASCADE Shape Model','2026-09-09T15:00:12',('Author'),(
    'Open CASCADE'),'Open CASCADE STEP processor 7.9','Open CASCADE 7.9'
  ,'Unknown');
FILE_SCHEMA(('AUTOMOTIVE_DESIGN { 1 0 10303 214 1 1 1 1 }'));
ENDSEC;
DATA;
#1 = APPLICATION_PROTOCOL_DEFINITION('international standard',
  'automotive_design',2000,#2);
#2 = APPLICATION_CONTEXT(
  'core data for automotive mechanical design processes');
#3 = SHAPE_DEFINITION_REPRESENTATION(#4,#10);
#4 = PRODUCT_DEFINITION_SHAPE('','',#5);
#5 = PRODUCT_DEFINITION('design','',#6,#9);
#6 = PRODUCT_DEFINITION_FORMATION('','',#7);
#7 = PRODUCT('Open CASCADE STEP translator 7.9 6',
  'Open CASCADE STEP translator 7.9 6','',(#8));
#8 = PRODUCT_CONTEXT('',#2,'mechanical');
#9 = PRODUCT_DEFINITION_CONTEXT('part definition',#2,'design');
#10 = ADVANCED_BREP_SHAPE_REPRESENTATION('',(#11,#15),#197);
#11 = AXIS2_PLACEMENT_3D('',#12,#13,#14);
#12 = CARTESIAN_POINT('',(0.,0.,0.));
#13 = DIRECTION('',(0.,0.,1.));
#14 = DIRECTION('',(1.,0.,-0.));
#15 = MANIFOLD_SOLID_BREP('',#16);
#16 = CLOSED_SHELL('',(#17,#193));
#17 = ADVANCED_FACE('',(#18),#31,.T.);
#18 = FACE_BOUND('',#19,.T.);
#19 = EDGE_LOOP('',(#20));
#20 = ORIENTED_EDGE('',*,*,#21,.F.);
#21 = EDGE_CURVE('',#22,#22,#24,.T.);
#22 = VERTEX_POINT('',#23);
#23 = CARTESIAN_POINT('',(29.,-45.,277.));
#24 = SURFACE_CURVE('',#25,(#30,#181),.PCURVE_S1.);
#25 = CIRCLE('',#26,12.);
#26 = AXIS2_PLACEMENT_3D('',#27,#28,#29);
#27 = CARTESIAN_POINT('',(29.,-45.,265.));
#28 = DIRECTION('',(0.,1.,0.));
#29 = DIRECTION('',(0.,-0.,1.));
#30 = PCURVE('',#31,#36);
#31 = SPHERICAL_SURFACE('',#32,13.);
#32 = AXIS2_PLACEMENT_3D('',#33,#34,#35);
#33 = CARTESIAN_POINT('',(29.,-40.,265.));
#34 = DIRECTION('',(0.,0.,1.));
#35 = DIRECTION('',(1.,0.,0.));
#36 = DEFINITIONAL_REPRESENTATION('',(#37),#180);
#37 = B_SPLINE_CURVE_WITH_KNOTS('',8,(#38,#39,#40,#41,#42,#43,#44,#45,
    #46,#47,#48,#49,#50,#51,#52,#53,#54,#55,#56,#57,#58,#59,#60,#61,#62,
    #63,#64,#65,#66,#67,#68,#69,#70,#71,#72,#73,#74,#75,#76,#77,#78,#79,
    #80,#81,#82,#83,#84,#85,#86,#87,#88,#89,#90,#91,#92,#93,#94,#95,#96,
    #97,#98,#99,#100,#101,#102,#103,#104,#105,#106,#107,#108,#109,#110,
    #111,#112,#113,#114,#115,#116,#117,#118,#119,#120,#121,#122,#123,
    #124,#125,#126,#127,#128,#129,#130,#131,#132,#133,#134,#135,#136,
    #137,#138,#139,#140,#141,#142,#143,#144,#145,#146,#147,#148,#149,
    #150,#151,#152,#153,#154,#155,#156,#157,#158,#159,#160,#161,#162,
    #163,#164,#165,#166,#167,#168,#169,#170,#171,#172,#173,#174,#175,
    #176,#177,#178,#179),.UNSPECIFIED.,.F.,.F.,(9,7,7,7,7,7,7,7,7,7,7,7,
    7,7,7,7,7,7,7,7,9),(0.,0.196349540849,0.386563158547,0.755102042837,
    1.44611245088,2.050746557917,2.315273979746,2.563268437711,
    2.795763242052,3.013727121123,3.218068257751,3.409638073341,
    3.589234775456,3.925978591921,4.515280270736,4.957256529847,
    5.28873872418,5.53735036993,5.910267838555,6.096726572867,
    6.28318530718),.UNSPECIFIED.);
#38 = CARTESIAN_POINT('',(4.712388980385,1.176005207095));
#39 = CARTESIAN_POINT('',(4.771293842639,1.176005207095));
#40 = CARTESIAN_POINT('',(4.830198688689,1.174352924398));
#41 = CARTESIAN_POINT('',(4.888426685216,1.171048406534));
#42 = CARTESIAN_POINT('',(4.945300414201,1.166130259685));
#43 = CARTESIAN_POINT('',(5.000238717454,1.159676720565));
#44 = CARTESIAN_POINT('',(5.052851021071,1.151791421623));
#45 = CARTESIAN_POINT('',(5.102903319797,1.142587693779));
#46 = CARTESIAN_POINT('',(5.196192462638,1.122098014279));
#47 = CARTESIAN_POINT('',(5.239593452424,1.110886118113));
#48 = CARTESIAN_POINT('',(5.280392999691,1.098648776841));
#49 = CARTESIAN_POINT('',(5.31860512359,1.085491330813));
#50 = CARTESIAN_POINT('',(5.35432009705,1.071512179387));
#51 = CARTESIAN_POINT('',(5.38766917101,1.056799811148));
#52 = CARTESIAN_POINT('',(5.418798343027,1.041432728958));
#53 = CARTESIAN_POINT('',(5.504165415569,0.994571825323));
#54 = CARTESIAN_POINT('',(5.552707846474,0.961465383798));
#55 = CARTESIAN_POINT('',(5.594589253909,0.926663901923));
#56 = CARTESIAN_POINT('',(5.63097238135,0.890537412494));
#57 = CARTESIAN_POINT('',(5.662745165875,0.853346507026));
#58 = CARTESIAN_POINT('',(5.69063536359,0.815290696484));
#59 = CARTESIAN_POINT('',(5.715213567903,0.776521208547));
#60 = CARTESIAN_POINT('',(5.777678372856,0.663350579728));
#61 = CARTESIAN_POINT('',(5.808391721283,0.58745462328));
#62 = CARTESIAN_POINT('',(5.83211420093,0.510255478515));
#63 = CARTESIAN_POINT('',(5.850466839784,0.432138780368));
#64 = CARTESIAN_POINT('',(5.864467293195,0.35338295962));
#65 = CARTESIAN_POINT('',(5.87476547475,0.274179692541));
#66 = CARTESIAN_POINT('',(5.881755157491,0.194687957629));
#67 = CARTESIAN_POINT('',(5.889001285149,4.536390955887E-02));
#68 = CARTESIAN_POINT('',(5.889990122193,-2.443372939547E-02));
#69 = CARTESIAN_POINT('',(5.888708908002,-9.424992143602E-02));
#70 = CARTESIAN_POINT('',(5.885155576951,-0.163999282612));
#71 = CARTESIAN_POINT('',(5.879224856821,-0.233594272991));
#72 = CARTESIAN_POINT('',(5.87069089425,-0.302934910305));
#73 = CARTESIAN_POINT('',(5.859178465868,-0.371898817116));
#74 = CARTESIAN_POINT('',(5.837414673682,-0.470235178343));
#75 = CARTESIAN_POINT('',(5.830096554224,-0.500057206659));
#76 = CARTESIAN_POINT('',(5.822029760511,-0.529757817763));
#77 = CARTESIAN_POINT('',(5.813149794911,-0.55931985373));
#78 = CARTESIAN_POINT('',(5.803380215188,-0.588723559397));
#79 = CARTESIAN_POINT('',(5.792629776128,-0.617945759615));
#80 = CARTESIAN_POINT('',(5.780788477392,-0.646958640823));
#81 = CARTESIAN_POINT('',(5.755473180285,-0.702699539573));
#82 = CARTESIAN_POINT('',(5.742147524875,-0.729457015211));
#83 = CARTESIAN_POINT('',(5.727635027085,-0.755972508046));
#84 = CARTESIAN_POINT('',(5.711807289854,-0.78221294401));
#85 = CARTESIAN_POINT('',(5.694513209687,-0.808139142663));
#86 = CARTESIAN_POINT('',(5.6755743299,-0.833703901109));
#87 = CARTESIAN_POINT('',(5.654780380752,-0.858849249946));
#88 = CARTESIAN_POINT('',(5.610420593095,-0.90661566059));
#89 = CARTESIAN_POINT('',(5.587109260439,-0.92929625084));
#90 = CARTESIAN_POINT('',(5.561748512955,-0.951485097451));
#91 = CARTESIAN_POINT('',(5.534108130358,-0.973111279941));
#92 = CARTESIAN_POINT('',(5.503931235027,-0.994090397733));
#93 = CARTESIAN_POINT('',(5.470933676197,-1.014320430062));
#94 = CARTESIAN_POINT('',(5.434820052675,-1.033678129033));
#95 = CARTESIAN_POINT('',(5.358317173787,-1.069212607353));
#96 = CARTESIAN_POINT('',(5.318336232937,-1.085512582232));
#97 = CARTESIAN_POINT('',(5.275181351697,-1.100799060557));
#98 = CARTESIAN_POINT('',(5.228672917485,-1.114935878451));
#99 = CARTESIAN_POINT('',(5.178701150027,-1.127771210186));
#100 = CARTESIAN_POINT('',(5.125284258088,-1.139139366754));
#101 = CARTESIAN_POINT('',(5.06868051298,-1.148878244864));
#102 = CARTESIAN_POINT('',(4.95378460396,-1.16432635815));
#103 = CARTESIAN_POINT('',(4.895819023659,-1.17024940466));
#104 = CARTESIAN_POINT('',(4.835886567664,-1.174508143038));
#105 = CARTESIAN_POINT('',(4.774567713455,-1.177010089796));
#106 = CARTESIAN_POINT('',(4.712624977583,-1.177696846818));
#107 = CARTESIAN_POINT('',(4.650908737521,-1.176564009612));
#108 = CARTESIAN_POINT('',(4.590175835167,-1.173655186596));
#109 = CARTESIAN_POINT('',(4.475601891057,-1.164729586268));
#110 = CARTESIAN_POINT('',(4.421567306737,-1.158918443302));
#111 = CARTESIAN_POINT('',(4.369442822719,-1.151679181198));
#112 = CARTESIAN_POINT('',(4.319622701993,-1.14310325496));
#113 = CARTESIAN_POINT('',(4.272338926244,-1.133298168315));
#114 = CARTESIAN_POINT('',(4.22768238083,-1.122375384448));
#115 = CARTESIAN_POINT('',(4.185651007614,-1.110441364685));
#116 = CARTESIAN_POINT('',(4.109175627515,-1.085552949385));
#117 = CARTESIAN_POINT('',(4.074421653458,-1.072708894418));
#118 = CARTESIAN_POINT('',(4.041864344074,-1.05914569613));
#119 = CARTESIAN_POINT('',(4.011402491299,-1.044939338767));
#120 = CARTESIAN_POINT('',(3.982911132551,-1.030158152066));
#121 = CARTESIAN_POINT('',(3.956258204547,-1.014862317014));
#122 = CARTESIAN_POINT('',(3.93131397484,-0.999104386086));
#123 = CARTESIAN_POINT('',(3.864151893985,-0.952605377738));
#124 = CARTESIAN_POINT('',(3.825917813142,-0.920818605849));
#125 = CARTESIAN_POINT('',(3.792427653467,-0.887875915917));
#126 = CARTESIAN_POINT('',(3.762927792544,-0.854002579417));
#127 = CARTESIAN_POINT('',(3.736826311993,-0.819365262985));
#128 = CARTESIAN_POINT('',(3.713638372908,-0.784093519806));
#129 = CARTESIAN_POINT('',(3.692974952558,-0.748288901652));
#130 = CARTESIAN_POINT('',(3.642217582454,-0.648585674057));
#131 = CARTESIAN_POINT('',(3.616674040332,-0.583756668489));
#132 = CARTESIAN_POINT('',(3.596182123285,-0.517984043023));
#133 = CARTESIAN_POINT('',(3.57971536709,-0.451518822524));
#134 = CARTESIAN_POINT('',(3.566591384246,-0.384542651402));
#135 = CARTESIAN_POINT('',(3.556345366799,-0.317188927913));
#136 = CARTESIAN_POINT('',(3.548668034437,-0.249566589467));
#137 = CARTESIAN_POINT('',(3.53940252712,-0.130922438462));
#138 = CARTESIAN_POINT('',(3.536771907541,-7.997692346867E-02));
#139 = CARTESIAN_POINT('',(3.535403229921,-2.897309429636E-02));
#140 = CARTESIAN_POINT('',(3.535257271088,2.205343474471E-02));
#141 = CARTESIAN_POINT('',(3.536327223351,7.306893200524E-02));
#142 = CARTESIAN_POINT('',(3.538636996868,0.124039227131));
#143 = CARTESIAN_POINT('',(3.542244555918,0.174927278886));
#144 = CARTESIAN_POINT('',(3.551004588939,0.263763147118));
#145 = CARTESIAN_POINT('',(3.555545401305,0.301765493726));
#146 = CARTESIAN_POINT('',(3.56091497906,0.339679759409));
#147 = CARTESIAN_POINT('',(3.567169487284,0.377486067114));
#148 = CARTESIAN_POINT('',(3.574380499422,0.415162053564));
#149 = CARTESIAN_POINT('',(3.582638703041,0.452681772494));
#150 = CARTESIAN_POINT('',(3.592059815172,0.490014022856));
#151 = CARTESIAN_POINT('',(3.610842376285,0.554949661394));
#152 = CARTESIAN_POINT('',(3.619629943251,0.5826519866));
#153 = CARTESIAN_POINT('',(3.629218266754,0.610210750934));
#154 = CARTESIAN_POINT('',(3.639680895701,0.637607121596));
#155 = CARTESIAN_POINT('',(3.651104115878,0.664819274219));
#156 = CARTESIAN_POINT('',(3.663589884354,0.691821490992));
#157 = CARTESIAN_POINT('',(3.677259651696,0.718582842342));
#158 = CARTESIAN_POINT('',(3.714758202443,0.784789367004));
#159 = CARTESIAN_POINT('',(3.740248971518,0.823886123496));
#160 = CARTESIAN_POINT('',(3.769223713196,0.862227570781));
#161 = CARTESIAN_POINT('',(3.802293275061,0.899651018461));
#162 = CARTESIAN_POINT('',(3.840238420427,0.935940462634));
#163 = CARTESIAN_POINT('',(3.884010221152,0.970813543837));
#164 = CARTESIAN_POINT('',(3.9348551545,1.003865554037));
#165 = CARTESIAN_POINT('',(4.023419573077,1.049891682248));
#166 = CARTESIAN_POINT('',(4.054990477286,1.064641752959));
#167 = CARTESIAN_POINT('',(4.088751707876,1.078731521804));
#168 = CARTESIAN_POINT('',(4.124835027033,1.092083900253));
#169 = CARTESIAN_POINT('',(4.163353564155,1.104612588661));
#170 = CARTESIAN_POINT('',(4.204375153476,1.116222609223));
#171 = CARTESIAN_POINT('',(4.247888720021,1.126813640508));
#172 = CARTESIAN_POINT('',(4.339659129312,1.145762298922));
#173 = CARTESIAN_POINT('',(4.3879160201,1.154119925913));
#174 = CARTESIAN_POINT('',(4.438424820384,1.161263087642));
#175 = CARTESIAN_POINT('',(4.490957471287,1.167096659714));
#176 = CARTESIAN_POINT('',(4.545155809054,1.171535203262));
#177 = CARTESIAN_POINT('',(4.600513747831,1.174515195415));
#178 = CARTESIAN_POINT('',(4.656451360091,1.176005207095));
#179 = CARTESIAN_POINT('',(4.712388980385,1.176005207095));
#180 = ( GEOMETRIC_REPRESENTATION_CONTEXT(2) 
PARAMETRIC_REPRESENTATION_CONTEXT() REPRESENTATION_CONTEXT('2D SPACE',''
  ) );
#181 = PCURVE('',#182,#187);
#182 = PLANE('',#183);
#183 = AXIS2_PLACEMENT_3D('',#184,#185,#186);
#184 = CARTESIAN_POINT('',(9.,-45.,245.));
#185 = DIRECTION('',(0.,1.,0.));
#186 = DIRECTION('',(0.,0.,1.));
#187 = DEFINITIONAL_REPRESENTATION('',(#188),#192);
#188 = CIRCLE('',#189,12.);
#189 = AXIS2_PLACEMENT_2D('',#190,#191);
#190 = CARTESIAN_POINT('',(20.,20.));
#191 = DIRECTION('',(1.,0.));
#192 = ( GEOMETRIC_REPRESENTATION_CONTEXT(2) 
PARAMETRIC_REPRESENTATION_CONTEXT() REPRESENTATION_CONTEXT('2D SPACE',''
  ) );
#193 = ADVANCED_FACE('',(#194),#182,.T.);
#194 = FACE_BOUND('',#195,.T.);
#195 = EDGE_LOOP('',(#196));
#196 = ORIENTED_EDGE('',*,*,#21,.T.);
#197 = ( GEOMETRIC_REPRESENTATION_CONTEXT(3) 
GLOBAL_UNCERTAINTY_ASSIGNED_CONTEXT((#201)) GLOBAL_UNIT_ASSIGNED_CONTEXT
((#198,#199,#200)) REPRESENTATION_CONTEXT('Context #1',
  '3D Context with UNIT and UNCERTAINTY') );
#198 = ( LENGTH_UNIT() NAMED_UNIT(*) SI_UNIT(.MILLI.,.METRE.) );
#199 = ( NAMED_UNIT(*) PLANE_ANGLE_UNIT() SI_UNIT($,.RADIAN.) );
#200 = ( NAMED_UNIT(*) SI_UNIT($,.STERADIAN.) SOLID_ANGLE_UNIT() );
#201 = UNCERTAINTY_MEASURE_WITH_UNIT(LENGTH_MEASURE(1.E-07),#198,
  'distance_accuracy_value','confusion accuracy');
#202 = PRODUCT_RELATED_PRODUCT_CATEGORY('part',$,(#7));
ENDSEC;
END-ISO-10303-21;
