ISO-10303-21;
HEADER;
FILE_DESCRIPTION(('Open CASCADE Model'),'2;1');
FILE_NAME('Open CASCADE Shape Model','2026-09-07T18:35:05',('Author'),(
    'Open CASCADE'),'Open CASCADE STEP processor 7.9','Open CASCADE 7.9'
  ,'Unknown');
FILE_SCHEMA(('AUTOMOTIVE_DESIGN { 1 0 10303 214 1 1 1 1 }'));
ENDSEC;
DATA;
#1 = APPLICATION_PROTOCOL_DEFINITION('international standard',
  'automotive_design',2000,#2);
#2 = APPLICATION_CONTEXT(
  'core data for automotive mechanical design processes');
#3 = SHAPE_DEFINITION_REPRESENTATION(#4,#10);
#4 = PRODUCT_DEFINITION_SHAPE('','',#5);
#5 = PRODUCT_DEFINITION('design','',#6,#9);
#6 = PRODUCT_DEFINITION_FORMATION('','',#7);
#7 = PRODUCT('Open CASCADE STEP translator 7.9 1',
  'Open CASCADE STEP translator 7.9 1','',(#8));
#8 = PRODUCT_CONTEXT('',#2,'mechanical');
#9 = PRODUCT_DEFINITION_CONTEXT('part definition',#2,'design');
#10 = ADVANCED_BREP_SHAPE_REPRESENTATION('',(#11,#15),#403);
#11 = AXIS2_PLACEMENT_3D('',#12,#13,#14);
#12 = CARTESIAN_POINT('',(0.,0.,0.));
#13 = DIRECTION('',(0.,0.,1.));
#14 = DIRECTION('',(1.,0.,-0.));
#15 = MANIFOLD_SOLID_BREP('',#16);
#16 = CLOSED_SHELL('',(#17,#208,#322,#375));
#17 = ADVANCED_FACE('',(#18),#42,.F.);
#18 = FACE_BOUND('',#19,.F.);
#19 = EDGE_LOOP('',(#20,#133,#157,#207));
#20 = ORIENTED_EDGE('',*,*,#21,.T.);
#21 = EDGE_CURVE('',#22,#22,#24,.T.);
#22 = VERTEX_POINT('',#23);
#23 = CARTESIAN_POINT('',(-52.,11.,149.));
#24 = SURFACE_CURVE('',#25,(#41,#109),.PCURVE_S1.);
#25 = B_SPLINE_CURVE_WITH_KNOTS('',14,(#26,#27,#28,#29,#30,#31,#32,#33,
    #34,#35,#36,#37,#38,#39,#40),.UNSPECIFIED.,.T.,.F.,(15,15),(0.,1.),
  .PIECEWISE_BEZIER_KNOTS.);
#26 = CARTESIAN_POINT('',(-52.,11.,149.));
#27 = CARTESIAN_POINT('',(-52.,11.000000000004,153.93678845564));
#28 = CARTESIAN_POINT('',(-52.,8.613942026791,158.87357873355));
#29 = CARTESIAN_POINT('',(-52.,3.841823030105,162.56101281232));
#30 = CARTESIAN_POINT('',(-52.,-2.602716762181,163.74987355405));
#31 = CARTESIAN_POINT('',(-52.,-9.292532264346,161.63874547116));
#32 = CARTESIAN_POINT('',(-52.,-14.39945871836,156.32473769783));
#33 = CARTESIAN_POINT('',(-52.,-16.3221146224,149.00000000022));
#34 = CARTESIAN_POINT('',(-52.,-14.39945871836,141.67526230175));
#35 = CARTESIAN_POINT('',(-52.,-9.292532264344,136.36125452914));
#36 = CARTESIAN_POINT('',(-52.,-2.602716762183,134.25012644575));
#37 = CARTESIAN_POINT('',(-52.,3.841823030106,135.43898718777));
#38 = CARTESIAN_POINT('',(-52.,8.613942026791,139.1264212664));
#39 = CARTESIAN_POINT('',(-52.,11.000000000004,144.06321154436));
#40 = CARTESIAN_POINT('',(-52.,11.,149.));
#41 = PCURVE('',#42,#103);
#42 = ( BOUNDED_SURFACE() B_SPLINE_SURFACE(14,3,(
    (#43,#44,#45,#46)
    ,(#47,#48,#49,#50)
    ,(#51,#52,#53,#54)
    ,(#55,#56,#57,#58)
    ,(#59,#60,#61,#62)
    ,(#63,#64,#65,#66)
    ,(#67,#68,#69,#70)
    ,(#71,#72,#73,#74)
    ,(#75,#76,#77,#78)
    ,(#79,#80,#81,#82)
    ,(#83,#84,#85,#86)
    ,(#87,#88,#89,#90)
    ,(#91,#92,#93,#94)
    ,(#95,#96,#97,#98)
    ,(#99,#100,#101,#102
)),.UNSPECIFIED.,.T.,.F.,.F.) B_SPLINE_SURFACE_WITH_KNOTS((15,15),(4,4),
  (0.,1.),(0.,1.),.PIECEWISE_BEZIER_KNOTS.) 
GEOMETRIC_REPRESENTATION_ITEM() RATIONAL_B_SPLINE_SURFACE((
    (1.,1.,1.,1.)
    ,(1.,1.,1.,1.)
    ,(1.,1.,1.,1.)
    ,(1.,1.,1.,1.)
    ,(1.,1.,1.,1.)
    ,(1.,1.,1.,1.)
    ,(1.,1.,1.,1.)
    ,(1.,1.,1.,1.)
    ,(1.,1.,1.,1.)
    ,(1.,1.,1.,1.)
    ,(1.,1.,1.,1.)
    ,(1.,1.,1.,1.)
    ,(1.,1.,1.,1.)
    ,(1.,1.,1.,1.)
,(1.,1.,1.,1.))) REPRESENTATION_ITEM('') SURFACE() );
#43 = CARTESIAN_POINT('',(-52.,11.,149.));
#44 = CARTESIAN_POINT('',(-100.6666666666,8.,142.16666666666));
#45 = CARTESIAN_POINT('',(-144.8333333333,5.,174.33333333333));
#46 = CARTESIAN_POINT('',(-180.,2.,187.));
#47 = CARTESIAN_POINT('',(-52.,11.000000000004,153.93678845564));
#48 = CARTESIAN_POINT('',(-100.6666666666,8.000000000003,145.75705827077
    ));
#49 = CARTESIAN_POINT('',(-144.8333333333,4.999999999999,176.5773280859)
  );
#50 = CARTESIAN_POINT('',(-180.,2.,187.89759790102));
#51 = CARTESIAN_POINT('',(-52.,8.613942026791,158.87357873355));
#52 = CARTESIAN_POINT('',(-100.6666666666,6.264684302715,149.34745120017
    ));
#53 = CARTESIAN_POINT('',(-144.8333333333,3.915430213197,178.82132366676
    ));
#54 = CARTESIAN_POINT('',(-180.,1.566168854572,188.79519613337));
#55 = CARTESIAN_POINT('',(-52.,3.841823030105,162.56101281232));
#56 = CARTESIAN_POINT('',(-100.6666666666,2.794058766544,152.02922143924
    ));
#57 = CARTESIAN_POINT('',(-144.8333333333,1.74626906114,180.49743006621)
  );
#58 = CARTESIAN_POINT('',(-180.,0.698530239394,189.46563869313));
#59 = CARTESIAN_POINT('',(-52.,-2.602716762181,163.74987355405));
#60 = CARTESIAN_POINT('',(-100.6666666666,-1.892904963018,
    152.89384743329));
#61 = CARTESIAN_POINT('',(-144.8333333333,-1.183002961021,
    181.03782131243));
#62 = CARTESIAN_POINT('',(-180.,-0.473281364638,189.68179519166));
#63 = CARTESIAN_POINT('',(-52.,-9.292532264346,161.63874547116));
#64 = CARTESIAN_POINT('',(-100.6666666666,-6.758159465872,
    151.35848155471));
#65 = CARTESIAN_POINT('',(-144.8333333333,-4.223992845248,
    180.07821763843));
#66 = CARTESIAN_POINT('',(-180.,-1.689413869008,189.29795372199));
#67 = CARTESIAN_POINT('',(-52.,-14.39945871836,156.32473769783));
#68 = CARTESIAN_POINT('',(-100.6666666666,-10.47240711191,
    147.49374862881));
#69 = CARTESIAN_POINT('',(-144.8333333333,-6.545024761872,
    177.66275955959));
#70 = CARTESIAN_POINT('',(-180.,-2.618303898912,188.33177049055));
#71 = CARTESIAN_POINT('',(-52.,-16.3221146224,149.00000000022));
#72 = CARTESIAN_POINT('',(-100.6666666666,-11.87054306797,
    142.16666666674));
#73 = CARTESIAN_POINT('',(-144.8333333333,-7.419357381065,
    174.33333333346));
#74 = CARTESIAN_POINT('',(-180.,-2.967399959237,187.));
#75 = CARTESIAN_POINT('',(-52.,-14.39945871836,141.67526230175));
#76 = CARTESIAN_POINT('',(-100.6666666666,-10.47240711191,
    136.83958470438));
#77 = CARTESIAN_POINT('',(-144.8333333333,-6.545024761867,
    171.00390710683));
#78 = CARTESIAN_POINT('',(-180.,-2.618303898911,185.66822950944));
#79 = CARTESIAN_POINT('',(-52.,-9.292532264344,136.36125452914));
#80 = CARTESIAN_POINT('',(-100.6666666666,-6.75815946587,132.97485177872
    ));
#81 = CARTESIAN_POINT('',(-144.8333333333,-4.223992845253,
    168.58844902841));
#82 = CARTESIAN_POINT('',(-180.,-1.68941386901,184.702046278));
#83 = CARTESIAN_POINT('',(-52.,-2.602716762183,134.25012644575));
#84 = CARTESIAN_POINT('',(-100.6666666666,-1.892904963019,
    131.43948589997));
#85 = CARTESIAN_POINT('',(-144.8333333333,-1.183002961017,
    167.62884535412));
#86 = CARTESIAN_POINT('',(-180.,-0.473281364637,184.31820480833));
#87 = CARTESIAN_POINT('',(-52.,3.841823030106,135.43898718777));
#88 = CARTESIAN_POINT('',(-100.6666666666,2.794058766544,132.30411189412
    ));
#89 = CARTESIAN_POINT('',(-144.8333333333,1.746269061139,168.1692366005)
  );
#90 = CARTESIAN_POINT('',(-180.,0.698530239394,184.53436130686));
#91 = CARTESIAN_POINT('',(-52.,8.613942026791,139.1264212664));
#92 = CARTESIAN_POINT('',(-100.6666666666,6.264684302715,134.98588213315
    ));
#93 = CARTESIAN_POINT('',(-144.8333333333,3.915430213197,169.84534299988
    ));
#94 = CARTESIAN_POINT('',(-180.,1.566168854573,185.20480386662));
#95 = CARTESIAN_POINT('',(-52.,11.000000000004,144.06321154436));
#96 = CARTESIAN_POINT('',(-100.6666666666,8.000000000003,138.57627506256
    ));
#97 = CARTESIAN_POINT('',(-144.8333333333,4.999999999999,172.08933858077
    ));
#98 = CARTESIAN_POINT('',(-180.,2.,186.10240209897));
#99 = CARTESIAN_POINT('',(-52.,11.,149.));
#100 = CARTESIAN_POINT('',(-100.6666666666,8.,142.16666666666));
#101 = CARTESIAN_POINT('',(-144.8333333333,5.,174.33333333333));
#102 = CARTESIAN_POINT('',(-180.,2.,187.));
#103 = DEFINITIONAL_REPRESENTATION('',(#104),#108);
#104 = LINE('',#105,#106);
#105 = CARTESIAN_POINT('',(0.,0.));
#106 = VECTOR('',#107,1.);
#107 = DIRECTION('',(1.,0.));
#108 = ( GEOMETRIC_REPRESENTATION_CONTEXT(2) 
PARAMETRIC_REPRESENTATION_CONTEXT() REPRESENTATION_CONTEXT('2D SPACE',''
  ) );
#109 = PCURVE('',#110,#115);
#110 = PLANE('',#111);
#111 = AXIS2_PLACEMENT_3D('',#112,#113,#114);
#112 = CARTESIAN_POINT('',(-52.,11.,149.));
#113 = DIRECTION('',(-1.,0.,0.));
#114 = DIRECTION('',(0.,-1.,0.));
#115 = DEFINITIONAL_REPRESENTATION('',(#116),#132);
#116 = B_SPLINE_CURVE_WITH_KNOTS('',14,(#117,#118,#119,#120,#121,#122,
    #123,#124,#125,#126,#127,#128,#129,#130,#131),.UNSPECIFIED.,.F.,.F.,
  (15,15),(0.,1.),.PIECEWISE_BEZIER_KNOTS.);
#117 = CARTESIAN_POINT('',(0.,0.));
#118 = CARTESIAN_POINT('',(-3.563371819837E-12,4.936788455646));
#119 = CARTESIAN_POINT('',(2.386057973209,9.873578733557));
#120 = CARTESIAN_POINT('',(7.158176969895,13.561012812323));
#121 = CARTESIAN_POINT('',(13.602716762181,14.749873554051));
#122 = CARTESIAN_POINT('',(20.292532264346,12.638745471168));
#123 = CARTESIAN_POINT('',(25.399458718363,7.324737697834));
#124 = CARTESIAN_POINT('',(27.322114622404,2.255831077491E-10));
#125 = CARTESIAN_POINT('',(25.399458718365,-7.324737698248));
#126 = CARTESIAN_POINT('',(20.292532264344,-12.63874547085));
#127 = CARTESIAN_POINT('',(13.602716762183,-14.74987355424));
#128 = CARTESIAN_POINT('',(7.158176969894,-13.56101281222));
#129 = CARTESIAN_POINT('',(2.386057973209,-9.873578733592));
#130 = CARTESIAN_POINT('',(-3.600675313464E-12,-4.936788455638));
#131 = CARTESIAN_POINT('',(-1.42108547152E-14,0.));
#132 = ( GEOMETRIC_REPRESENTATION_CONTEXT(2) 
PARAMETRIC_REPRESENTATION_CONTEXT() REPRESENTATION_CONTEXT('2D SPACE',''
  ) );
#133 = ORIENTED_EDGE('',*,*,#134,.T.);
#134 = EDGE_CURVE('',#22,#135,#137,.T.);
#135 = VERTEX_POINT('',#136);
#136 = CARTESIAN_POINT('',(-180.,2.,187.));
#137 = SEAM_CURVE('',#138,(#143,#150),.PCURVE_S1.);
#138 = ( BOUNDED_CURVE() B_SPLINE_CURVE(3,(#139,#140,#141,#142),
.UNSPECIFIED.,.F.,.F.) B_SPLINE_CURVE_WITH_KNOTS((4,4),(0.,1.),
.PIECEWISE_BEZIER_KNOTS.) CURVE() GEOMETRIC_REPRESENTATION_ITEM() 
RATIONAL_B_SPLINE_CURVE((1.,1.,1.,1.)) REPRESENTATION_ITEM('') );
#139 = CARTESIAN_POINT('',(-52.,11.,149.));
#140 = CARTESIAN_POINT('',(-100.6666666666,8.,142.16666666666));
#141 = CARTESIAN_POINT('',(-144.8333333333,5.,174.33333333333));
#142 = CARTESIAN_POINT('',(-180.,2.,187.));
#143 = PCURVE('',#42,#144);
#144 = DEFINITIONAL_REPRESENTATION('',(#145),#149);
#145 = LINE('',#146,#147);
#146 = CARTESIAN_POINT('',(1.,0.));
#147 = VECTOR('',#148,1.);
#148 = DIRECTION('',(0.,1.));
#149 = ( GEOMETRIC_REPRESENTATION_CONTEXT(2) 
PARAMETRIC_REPRESENTATION_CONTEXT() REPRESENTATION_CONTEXT('2D SPACE',''
  ) );
#150 = PCURVE('',#42,#151);
#151 = DEFINITIONAL_REPRESENTATION('',(#152),#156);
#152 = LINE('',#153,#154);
#153 = CARTESIAN_POINT('',(0.,0.));
#154 = VECTOR('',#155,1.);
#155 = DIRECTION('',(0.,1.));
#156 = ( GEOMETRIC_REPRESENTATION_CONTEXT(2) 
PARAMETRIC_REPRESENTATION_CONTEXT() REPRESENTATION_CONTEXT('2D SPACE',''
  ) );
#157 = ORIENTED_EDGE('',*,*,#158,.F.);
#158 = EDGE_CURVE('',#135,#135,#159,.T.);
#159 = SURFACE_CURVE('',#160,(#176,#183),.PCURVE_S1.);
#160 = B_SPLINE_CURVE_WITH_KNOTS('',14,(#161,#162,#163,#164,#165,#166,
    #167,#168,#169,#170,#171,#172,#173,#174,#175),.UNSPECIFIED.,.T.,.F.,
  (15,15),(0.,1.),.PIECEWISE_BEZIER_KNOTS.);
#161 = CARTESIAN_POINT('',(-180.,2.,187.));
#162 = CARTESIAN_POINT('',(-180.,2.,187.89759790102));
#163 = CARTESIAN_POINT('',(-180.,1.566168854572,188.79519613337));
#164 = CARTESIAN_POINT('',(-180.,0.698530239394,189.46563869313));
#165 = CARTESIAN_POINT('',(-180.,-0.473281364638,189.68179519166));
#166 = CARTESIAN_POINT('',(-180.,-1.689413869008,189.29795372199));
#167 = CARTESIAN_POINT('',(-180.,-2.618303898912,188.33177049055));
#168 = CARTESIAN_POINT('',(-180.,-2.967399959237,187.));
#169 = CARTESIAN_POINT('',(-180.,-2.618303898911,185.66822950944));
#170 = CARTESIAN_POINT('',(-180.,-1.68941386901,184.702046278));
#171 = CARTESIAN_POINT('',(-180.,-0.473281364637,184.31820480833));
#172 = CARTESIAN_POINT('',(-180.,0.698530239394,184.53436130686));
#173 = CARTESIAN_POINT('',(-180.,1.566168854573,185.20480386662));
#174 = CARTESIAN_POINT('',(-180.,2.,186.10240209897));
#175 = CARTESIAN_POINT('',(-180.,2.,187.));
#176 = PCURVE('',#42,#177);
#177 = DEFINITIONAL_REPRESENTATION('',(#178),#182);
#178 = LINE('',#179,#180);
#179 = CARTESIAN_POINT('',(0.,1.));
#180 = VECTOR('',#181,1.);
#181 = DIRECTION('',(1.,0.));
#182 = ( GEOMETRIC_REPRESENTATION_CONTEXT(2) 
PARAMETRIC_REPRESENTATION_CONTEXT() REPRESENTATION_CONTEXT('2D SPACE',''
  ) );
#183 = PCURVE('',#184,#189);
#184 = PLANE('',#185);
#185 = AXIS2_PLACEMENT_3D('',#186,#187,#188);
#186 = CARTESIAN_POINT('',(-180.,2.,187.));
#187 = DIRECTION('',(-1.,-0.,0.));
#188 = DIRECTION('',(0.,-1.,-7.105427405884E-15));
#189 = DEFINITIONAL_REPRESENTATION('',(#190),#206);
#190 = B_SPLINE_CURVE_WITH_KNOTS('',14,(#191,#192,#193,#194,#195,#196,
    #197,#198,#199,#200,#201,#202,#203,#204,#205),.UNSPECIFIED.,.F.,.F.,
  (15,15),(0.,1.),.PIECEWISE_BEZIER_KNOTS.);
#191 = CARTESIAN_POINT('',(0.,0.));
#192 = CARTESIAN_POINT('',(-1.15463194561E-13,0.897597901025));
#193 = CARTESIAN_POINT('',(0.433831145428,1.795196133378));
#194 = CARTESIAN_POINT('',(1.301469760606,2.465638693138));
#195 = CARTESIAN_POINT('',(2.473281364638,2.681795191669));
#196 = CARTESIAN_POINT('',(3.689413869008,2.297953721996));
#197 = CARTESIAN_POINT('',(4.618303898912,1.331770490557));
#198 = CARTESIAN_POINT('',(4.967399959237,-1.42108547152E-13));
#199 = CARTESIAN_POINT('',(4.618303898911,-1.331770490557));
#200 = CARTESIAN_POINT('',(3.68941386901,-2.297953721996));
#201 = CARTESIAN_POINT('',(2.473281364637,-2.681795191669));
#202 = CARTESIAN_POINT('',(1.301469760606,-2.465638693137));
#203 = CARTESIAN_POINT('',(0.433831145427,-1.795196133379));
#204 = CARTESIAN_POINT('',(-2.975397705995E-14,-0.897597901025));
#205 = CARTESIAN_POINT('',(8.881784197001E-16,0.));
#206 = ( GEOMETRIC_REPRESENTATION_CONTEXT(2) 
PARAMETRIC_REPRESENTATION_CONTEXT() REPRESENTATION_CONTEXT('2D SPACE',''
  ) );
#207 = ORIENTED_EDGE('',*,*,#134,.F.);
#208 = ADVANCED_FACE('',(#209,#212),#110,.F.);
#209 = FACE_BOUND('',#210,.F.);
#210 = EDGE_LOOP('',(#211));
#211 = ORIENTED_EDGE('',*,*,#21,.F.);
#212 = FACE_BOUND('',#213,.F.);
#213 = EDGE_LOOP('',(#214));
#214 = ORIENTED_EDGE('',*,*,#215,.T.);
#215 = EDGE_CURVE('',#216,#216,#218,.T.);
#216 = VERTEX_POINT('',#217);
#217 = CARTESIAN_POINT('',(-52.,9.4,149.));
#218 = SURFACE_CURVE('',#219,(#235,#254),.PCURVE_S1.);
#219 = B_SPLINE_CURVE_WITH_KNOTS('',14,(#220,#221,#222,#223,#224,#225,
    #226,#227,#228,#229,#230,#231,#232,#233,#234),.UNSPECIFIED.,.T.,.F.,
  (15,15),(0.,1.),.PIECEWISE_BEZIER_KNOTS.);
#220 = CARTESIAN_POINT('',(-52.,9.4,149.));
#221 = CARTESIAN_POINT('',(-52.,9.4,153.21871013482));
#222 = CARTESIAN_POINT('',(-52.,7.361005004726,157.43742182686));
#223 = CARTESIAN_POINT('',(-52.,3.283012407508,160.58850185779));
#224 = CARTESIAN_POINT('',(-52.,-2.224139778513,161.60443740075));
#225 = CARTESIAN_POINT('',(-52.,-7.940891207843,159.80038249351));
#226 = CARTESIAN_POINT('',(-52.,-12.30499199551,155.25932130545));
#227 = CARTESIAN_POINT('',(-52.,-13.94798885933,149.00000000016));
#228 = CARTESIAN_POINT('',(-52.,-12.30499199551,142.74067869424));
#229 = CARTESIAN_POINT('',(-52.,-7.940891207842,138.19961750671));
#230 = CARTESIAN_POINT('',(-52.,-2.224139778514,136.3955625991));
#231 = CARTESIAN_POINT('',(-52.,3.283012407508,137.41149814228));
#232 = CARTESIAN_POINT('',(-52.,7.361005004726,140.56257817311));
#233 = CARTESIAN_POINT('',(-52.,9.4,144.78128986518));
#234 = CARTESIAN_POINT('',(-52.,9.4,149.));
#235 = PCURVE('',#110,#236);
#236 = DEFINITIONAL_REPRESENTATION('',(#237),#253);
#237 = B_SPLINE_CURVE_WITH_KNOTS('',14,(#238,#239,#240,#241,#242,#243,
    #244,#245,#246,#247,#248,#249,#250,#251,#252),.UNSPECIFIED.,.F.,.F.,
  (15,15),(0.,1.),.PIECEWISE_BEZIER_KNOTS.);
#238 = CARTESIAN_POINT('',(1.6,0.));
#239 = CARTESIAN_POINT('',(1.6,4.218710134824));
#240 = CARTESIAN_POINT('',(3.638994995274,8.437421826862));
#241 = CARTESIAN_POINT('',(7.716987592492,11.588501857792));
#242 = CARTESIAN_POINT('',(13.224139778513,12.604437400755));
#243 = CARTESIAN_POINT('',(18.940891207843,10.800382493516));
#244 = CARTESIAN_POINT('',(23.304991995518,6.259321305452));
#245 = CARTESIAN_POINT('',(24.947988859337,1.662670001679E-10));
#246 = CARTESIAN_POINT('',(23.304991995519,-6.259321305757));
#247 = CARTESIAN_POINT('',(18.940891207842,-10.80038249328));
#248 = CARTESIAN_POINT('',(13.224139778514,-12.60443740089));
#249 = CARTESIAN_POINT('',(7.716987592492,-11.58850185772));
#250 = CARTESIAN_POINT('',(3.638994995274,-8.437421826888));
#251 = CARTESIAN_POINT('',(1.6,-4.218710134818));
#252 = CARTESIAN_POINT('',(1.6,0.));
#253 = ( GEOMETRIC_REPRESENTATION_CONTEXT(2) 
PARAMETRIC_REPRESENTATION_CONTEXT() REPRESENTATION_CONTEXT('2D SPACE',''
  ) );
#254 = PCURVE('',#255,#316);
#255 = ( BOUNDED_SURFACE() B_SPLINE_SURFACE(14,3,(
    (#256,#257,#258,#259)
    ,(#260,#261,#262,#263)
    ,(#264,#265,#266,#267)
    ,(#268,#269,#270,#271)
    ,(#272,#273,#274,#275)
    ,(#276,#277,#278,#279)
    ,(#280,#281,#282,#283)
    ,(#284,#285,#286,#287)
    ,(#288,#289,#290,#291)
    ,(#292,#293,#294,#295)
    ,(#296,#297,#298,#299)
    ,(#300,#301,#302,#303)
    ,(#304,#305,#306,#307)
    ,(#308,#309,#310,#311)
    ,(#312,#313,#314,#315
)),.UNSPECIFIED.,.T.,.F.,.F.) B_SPLINE_SURFACE_WITH_KNOTS((15,15),(4,4),
  (0.,1.),(0.,1.),.PIECEWISE_BEZIER_KNOTS.) 
GEOMETRIC_REPRESENTATION_ITEM() RATIONAL_B_SPLINE_SURFACE((
    (1.,1.,1.,1.)
    ,(1.,1.,1.,1.)
    ,(1.,1.,1.,1.)
    ,(1.,1.,1.,1.)
    ,(1.,1.,1.,1.)
    ,(1.,1.,1.,1.)
    ,(1.,1.,1.,1.)
    ,(1.,1.,1.,1.)
    ,(1.,1.,1.,1.)
    ,(1.,1.,1.,1.)
    ,(1.,1.,1.,1.)
    ,(1.,1.,1.,1.)
    ,(1.,1.,1.,1.)
    ,(1.,1.,1.,1.)
,(1.,1.,1.,1.))) REPRESENTATION_ITEM('') SURFACE() );
#256 = CARTESIAN_POINT('',(-52.,9.4,149.));
#257 = CARTESIAN_POINT('',(-100.6666666666,6.4,142.16666666666));
#258 = CARTESIAN_POINT('',(-144.8333333333,3.4,174.33333333333));
#259 = CARTESIAN_POINT('',(-180.,0.4,187.));
#260 = CARTESIAN_POINT('',(-52.,9.4,153.21871013482));
#261 = CARTESIAN_POINT('',(-100.6666666666,6.400000000005,
    145.03897994995));
#262 = CARTESIAN_POINT('',(-144.8333333333,3.399999999998,
    175.85924976507));
#263 = CARTESIAN_POINT('',(-180.,0.4,187.1795195802));
#264 = CARTESIAN_POINT('',(-52.,7.361005004726,157.43742182686));
#265 = CARTESIAN_POINT('',(-100.6666666666,5.011754105489,147.9112932282
    ));
#266 = CARTESIAN_POINT('',(-144.8333333333,2.662479218326,177.3851694232
    ));
#267 = CARTESIAN_POINT('',(-180.,0.313233770915,187.35903603094));
#268 = CARTESIAN_POINT('',(-52.,3.283012407508,160.58850185779));
#269 = CARTESIAN_POINT('',(-100.6666666666,2.235200369968,
    150.05671645014));
#270 = CARTESIAN_POINT('',(-144.8333333333,1.187556248153,
    178.52490419819));
#271 = CARTESIAN_POINT('',(-180.,0.139706047879,187.49314563474));
#272 = CARTESIAN_POINT('',(-52.,-2.224139778513,161.60443740075));
#273 = CARTESIAN_POINT('',(-100.6666666666,-1.514158598779,
    150.74839541741));
#274 = CARTESIAN_POINT('',(-144.8333333333,-0.804772756854,
    178.89242481541));
#275 = CARTESIAN_POINT('',(-180.,-9.465627292732E-02,187.53631145092));
#276 = CARTESIAN_POINT('',(-52.,-7.940891207843,159.80038249351));
#277 = CARTESIAN_POINT('',(-100.6666666666,-5.406905565053,
    149.52014274861));
#278 = CARTESIAN_POINT('',(-144.8333333333,-2.871559149912,
    178.23979423216));
#279 = CARTESIAN_POINT('',(-180.,-0.337882773802,187.45966325855));
#280 = CARTESIAN_POINT('',(-52.,-12.30499199551,155.25932130545));
#281 = CARTESIAN_POINT('',(-100.6666666666,-8.377319326765,
    146.42831284879));
#282 = CARTESIAN_POINT('',(-144.8333333333,-4.451829563805,
    176.59739163605));
#283 = CARTESIAN_POINT('',(-180.,-0.523660779782,187.26629593572));
#284 = CARTESIAN_POINT('',(-52.,-13.94798885933,149.00000000016));
#285 = CARTESIAN_POINT('',(-100.6666666666,-9.497141877621,
    142.16666666684));
#286 = CARTESIAN_POINT('',(-144.8333333333,-5.043748172426,
    174.33333333323));
#287 = CARTESIAN_POINT('',(-180.,-0.593479991847,187.));
#288 = CARTESIAN_POINT('',(-52.,-12.30499199551,142.74067869424));
#289 = CARTESIAN_POINT('',(-100.6666666666,-8.377319326762,
    137.90502048422));
#290 = CARTESIAN_POINT('',(-144.8333333333,-4.451829563807,
    172.0692750308));
#291 = CARTESIAN_POINT('',(-180.,-0.523660779782,186.73370406428));
#292 = CARTESIAN_POINT('',(-52.,-7.940891207842,138.19961750671));
#293 = CARTESIAN_POINT('',(-100.6666666666,-5.406905565057,
    134.81319058497));
#294 = CARTESIAN_POINT('',(-144.8333333333,-2.871559149909,
    170.42687243435));
#295 = CARTESIAN_POINT('',(-180.,-0.337882773802,186.54033674145));
#296 = CARTESIAN_POINT('',(-52.,-2.224139778514,136.3955625991));
#297 = CARTESIAN_POINT('',(-100.6666666666,-1.514158598775,
    133.58493791576));
#298 = CARTESIAN_POINT('',(-144.8333333333,-0.804772756856,
    169.77424185133));
#299 = CARTESIAN_POINT('',(-180.,-9.465627292732E-02,186.46368854907));
#300 = CARTESIAN_POINT('',(-52.,3.283012407508,137.41149814228));
#301 = CARTESIAN_POINT('',(-100.6666666666,2.235200369965,
    134.27661688326));
#302 = CARTESIAN_POINT('',(-144.8333333333,1.187556248155,
    170.14176246842));
#303 = CARTESIAN_POINT('',(-180.,0.139706047879,186.50685436525));
#304 = CARTESIAN_POINT('',(-52.,7.361005004726,140.56257817311));
#305 = CARTESIAN_POINT('',(-100.6666666666,5.01175410549,136.42204010509
    ));
#306 = CARTESIAN_POINT('',(-144.8333333333,2.662479218325,
    171.28149724347));
#307 = CARTESIAN_POINT('',(-180.,0.313233770915,186.64096396906));
#308 = CARTESIAN_POINT('',(-52.,9.4,144.78128986518));
#309 = CARTESIAN_POINT('',(-100.6666666666,6.400000000005,
    139.29435338338));
#310 = CARTESIAN_POINT('',(-144.8333333333,3.399999999998,
    172.80741690159));
#311 = CARTESIAN_POINT('',(-180.,0.4,186.82048041979));
#312 = CARTESIAN_POINT('',(-52.,9.4,149.));
#313 = CARTESIAN_POINT('',(-100.6666666666,6.4,142.16666666666));
#314 = CARTESIAN_POINT('',(-144.8333333333,3.4,174.33333333333));
#315 = CARTESIAN_POINT('',(-180.,0.4,187.));
#316 = DEFINITIONAL_REPRESENTATION('',(#317),#321);
#317 = LINE('',#318,#319);
#318 = CARTESIAN_POINT('',(0.,0.));
#319 = VECTOR('',#320,1.);
#320 = DIRECTION('',(1.,0.));
#321 = ( GEOMETRIC_REPRESENTATION_CONTEXT(2) 
PARAMETRIC_REPRESENTATION_CONTEXT() REPRESENTATION_CONTEXT('2D SPACE',''
  ) );
#322 = ADVANCED_FACE('',(#323,#326),#184,.T.);
#323 = FACE_BOUND('',#324,.T.);
#324 = EDGE_LOOP('',(#325));
#325 = ORIENTED_EDGE('',*,*,#158,.F.);
#326 = FACE_BOUND('',#327,.T.);
#327 = EDGE_LOOP('',(#328));
#328 = ORIENTED_EDGE('',*,*,#329,.T.);
#329 = EDGE_CURVE('',#330,#330,#332,.T.);
#330 = VERTEX_POINT('',#331);
#331 = CARTESIAN_POINT('',(-180.,0.4,187.));
#332 = SURFACE_CURVE('',#333,(#349,#368),.PCURVE_S1.);
#333 = B_SPLINE_CURVE_WITH_KNOTS('',14,(#334,#335,#336,#337,#338,#339,
    #340,#341,#342,#343,#344,#345,#346,#347,#348),.UNSPECIFIED.,.T.,.F.,
  (15,15),(0.,1.),.PIECEWISE_BEZIER_KNOTS.);
#334 = CARTESIAN_POINT('',(-180.,0.4,187.));
#335 = CARTESIAN_POINT('',(-180.,0.4,187.1795195802));
#336 = CARTESIAN_POINT('',(-180.,0.313233770915,187.35903603094));
#337 = CARTESIAN_POINT('',(-180.,0.139706047879,187.49314563474));
#338 = CARTESIAN_POINT('',(-180.,-9.465627292732E-02,187.53631145092));
#339 = CARTESIAN_POINT('',(-180.,-0.337882773802,187.45966325855));
#340 = CARTESIAN_POINT('',(-180.,-0.523660779782,187.26629593572));
#341 = CARTESIAN_POINT('',(-180.,-0.593479991847,187.));
#342 = CARTESIAN_POINT('',(-180.,-0.523660779782,186.73370406428));
#343 = CARTESIAN_POINT('',(-180.,-0.337882773802,186.54033674145));
#344 = CARTESIAN_POINT('',(-180.,-9.465627292732E-02,186.46368854907));
#345 = CARTESIAN_POINT('',(-180.,0.139706047879,186.50685436525));
#346 = CARTESIAN_POINT('',(-180.,0.313233770915,186.64096396906));
#347 = CARTESIAN_POINT('',(-180.,0.4,186.82048041979));
#348 = CARTESIAN_POINT('',(-180.,0.4,187.));
#349 = PCURVE('',#184,#350);
#350 = DEFINITIONAL_REPRESENTATION('',(#351),#367);
#351 = B_SPLINE_CURVE_WITH_KNOTS('',14,(#352,#353,#354,#355,#356,#357,
    #358,#359,#360,#361,#362,#363,#364,#365,#366),.UNSPECIFIED.,.T.,.F.,
  (15,15),(0.,1.),.PIECEWISE_BEZIER_KNOTS.);
#352 = CARTESIAN_POINT('',(1.6,2.84217094304E-14));
#353 = CARTESIAN_POINT('',(1.6,0.179519580205));
#354 = CARTESIAN_POINT('',(1.686766229085,0.35903603094));
#355 = CARTESIAN_POINT('',(1.860293952121,0.493145634748));
#356 = CARTESIAN_POINT('',(2.094656272927,0.536311450922));
#357 = CARTESIAN_POINT('',(2.337882773802,0.45966325855));
#358 = CARTESIAN_POINT('',(2.523660779782,0.26629593572));
#359 = CARTESIAN_POINT('',(2.593479991847,-2.84217094304E-14));
#360 = CARTESIAN_POINT('',(2.523660779782,-0.26629593572));
#361 = CARTESIAN_POINT('',(2.337882773802,-0.45966325855));
#362 = CARTESIAN_POINT('',(2.094656272927,-0.536311450922));
#363 = CARTESIAN_POINT('',(1.860293952121,-0.493145634748));
#364 = CARTESIAN_POINT('',(1.686766229085,-0.35903603094));
#365 = CARTESIAN_POINT('',(1.6,-0.179519580205));
#366 = CARTESIAN_POINT('',(1.6,2.84217094304E-14));
#367 = ( GEOMETRIC_REPRESENTATION_CONTEXT(2) 
PARAMETRIC_REPRESENTATION_CONTEXT() REPRESENTATION_CONTEXT('2D SPACE',''
  ) );
#368 = PCURVE('',#255,#369);
#369 = DEFINITIONAL_REPRESENTATION('',(#370),#374);
#370 = LINE('',#371,#372);
#371 = CARTESIAN_POINT('',(0.,1.));
#372 = VECTOR('',#373,1.);
#373 = DIRECTION('',(1.,0.));
#374 = ( GEOMETRIC_REPRESENTATION_CONTEXT(2) 
PARAMETRIC_REPRESENTATION_CONTEXT() REPRESENTATION_CONTEXT('2D SPACE',''
  ) );
#375 = ADVANCED_FACE('',(#376),#255,.T.);
#376 = FACE_BOUND('',#377,.T.);
#377 = EDGE_LOOP('',(#378,#379,#401,#402));
#378 = ORIENTED_EDGE('',*,*,#215,.T.);
#379 = ORIENTED_EDGE('',*,*,#380,.T.);
#380 = EDGE_CURVE('',#216,#330,#381,.T.);
#381 = SEAM_CURVE('',#382,(#387,#394),.PCURVE_S1.);
#382 = ( BOUNDED_CURVE() B_SPLINE_CURVE(3,(#383,#384,#385,#386),
.UNSPECIFIED.,.F.,.F.) B_SPLINE_CURVE_WITH_KNOTS((4,4),(0.,1.),
.PIECEWISE_BEZIER_KNOTS.) CURVE() GEOMETRIC_REPRESENTATION_ITEM() 
RATIONAL_B_SPLINE_CURVE((1.,1.,1.,1.)) REPRESENTATION_ITEM('') );
#383 = CARTESIAN_POINT('',(-52.,9.4,149.));
#384 = CARTESIAN_POINT('',(-100.6666666666,6.4,142.16666666666));
#385 = CARTESIAN_POINT('',(-144.8333333333,3.4,174.33333333333));
#386 = CARTESIAN_POINT('',(-180.,0.4,187.));
#387 = PCURVE('',#255,#388);
#388 = DEFINITIONAL_REPRESENTATION('',(#389),#393);
#389 = LINE('',#390,#391);
#390 = CARTESIAN_POINT('',(1.,0.));
#391 = VECTOR('',#392,1.);
#392 = DIRECTION('',(0.,1.));
#393 = ( GEOMETRIC_REPRESENTATION_CONTEXT(2) 
PARAMETRIC_REPRESENTATION_CONTEXT() REPRESENTATION_CONTEXT('2D SPACE',''
  ) );
#394 = PCURVE('',#255,#395);
#395 = DEFINITIONAL_REPRESENTATION('',(#396),#400);
#396 = LINE('',#397,#398);
#397 = CARTESIAN_POINT('',(0.,0.));
#398 = VECTOR('',#399,1.);
#399 = DIRECTION('',(0.,1.));
#400 = ( GEOMETRIC_REPRESENTATION_CONTEXT(2) 
PARAMETRIC_REPRESENTATION_CONTEXT() REPRESENTATION_CONTEXT('2D SPACE',''
  ) );
#401 = ORIENTED_EDGE('',*,*,#329,.F.);
#402 = ORIENTED_EDGE('',*,*,#380,.F.);
#403 = ( GEOMETRIC_REPRESENTATION_CONTEXT(3) 
GLOBAL_UNCERTAINTY_ASSIGNED_CONTEXT((#407)) GLOBAL_UNIT_ASSIGNED_CONTEXT
((#404,#405,#406)) REPRESENTATION_CONTEXT('Context #1',
  '3D Context with UNIT and UNCERTAINTY') );
#404 = ( LENGTH_UNIT() NAMED_UNIT(*) SI_UNIT(.MILLI.,.METRE.) );
#405 = ( NAMED_UNIT(*) PLANE_ANGLE_UNIT() SI_UNIT($,.RADIAN.) );
#406 = ( NAMED_UNIT(*) SI_UNIT($,.STERADIAN.) SOLID_ANGLE_UNIT() );
#407 = UNCERTAINTY_MEASURE_WITH_UNIT(LENGTH_MEASURE(1.E-07),#404,
  'distance_accuracy_value','confusion accuracy');
#408 = PRODUCT_RELATED_PRODUCT_CATEGORY('part',$,(#7));
ENDSEC;
END-ISO-10303-21;
